<svg width="354" height="209" viewBox="0 0 354 209" fill="none" xmlns="http://www.w3.org/2000/svg">
<path d="M215.243 42.2435C213.822 41.5612 212.4 40.8789 210.978 40.1967C186.468 28.4845 162.47 15.3509 136.539 7.27748C110.607 -0.795971 82.0029 -3.46817 56.5263 5.8561C31.0496 15.2941 9.6106 38.6047 8.13205 65.7247C7.62024 75.5038 9.55373 85.2829 9.49687 95.062C9.49687 101.6 8.41638 108.423 5.28867 114.279C1.70602 120.931 -2.33157 121.955 1.53542 130.028C6.36915 140.035 14.5581 148.335 24.3393 153.566C29.4005 156.295 34.6892 157.887 40.319 159.138C45.9489 160.389 49.9296 164.027 54.7634 166.757C78.3065 179.947 103.613 190.01 129.373 198.084C133.98 199.505 138.643 200.927 143.306 202.234C166.963 208.886 192.894 211.331 217.12 206.328C222.636 205.191 227.527 206.214 233.213 206.044C238.9 205.873 244.814 204.736 250.331 203.03C261.988 199.448 272.793 193.251 282.745 186.315C302.08 172.84 319.368 158.911 341.262 149.643C351.896 145.152 350.133 141.285 351.441 131.506C352.92 120.476 356.843 110.186 350.531 99.6673C344.389 89.3765 331.651 85.4535 320.164 82.099C284.28 71.5239 249.136 58.2198 215.3 42.3003L215.243 42.2435Z" fill="#4C946C"/>
</svg>
