<svg width="284" height="100" viewBox="0 0 284 100" fill="none" xmlns="http://www.w3.org/2000/svg">
<g clip-path="url(#clip0_31_2)">
<path d="M84.2927 9.68422C85.1894 11.3158 85.6114 13.2632 87.0884 14.4211C90.9918 17.4211 95.6337 11.7368 100.276 10C106.711 7.52632 113.094 13.2632 119.582 15.5263C127.811 18.3684 137.411 15.3684 143.688 9.36843C146.062 7.10527 148.119 4.36843 150.967 2.73685C154.185 0.894742 157.983 0.578952 161.675 0.315794C170.168 -0.315784 179.926 -0.421048 185.729 5.73685C187.892 8.05264 189.316 11.1053 191.953 12.7895C193.852 14.0526 196.173 14.4737 198.441 14.6842C206.881 15.4737 215.585 13.8947 223.128 10.0526C228.033 7.57895 232.781 4.1579 238.267 4.05264C244.808 3.94737 250.399 8.52632 255.252 12.8947C257.626 15 260.105 17.3158 260.896 20.3684C261.371 22.2105 261.16 24.1579 261.793 25.8947C264.799 34 280.466 29.3684 283.578 37.4211C284.686 40.3684 283.209 43.8947 280.624 45.6842C278.039 47.4737 274.505 47.579 271.499 46.579C271.235 50.3684 273.872 53.6842 275.877 56.9474C277.881 60.2105 279.2 64.7895 276.562 67.579C275.666 68.5263 274.505 69.1053 273.661 70.1053C270.233 74.3158 276.773 80.7895 274.558 85.7369C271.604 87.6842 267.753 86.2105 264.272 85.8421C260.79 85.4737 256.149 88 257.415 91.3158C249.502 92.8421 241.906 88.1579 234.838 84.2632C227.77 80.3684 218.802 77.2105 211.998 81.579C210.363 82.6316 208.938 84.1053 207.198 85C201.29 88.1053 194.274 84.1579 188.525 80.7895C185.201 78.7895 181.509 76.8947 177.658 77.1053C172.7 77.3684 168.638 80.9474 164.313 83.3158C157.561 87.0526 149.279 88.0526 141.789 86.1053C135.354 84.4211 128.496 80.6316 122.588 83.579C118.474 85.6316 116.47 90.2632 113.41 93.6842C108.768 98.8421 101.12 101.158 94.3678 99.3684C87.6159 97.579 82.0773 91.8947 80.4948 85.1053C80.0728 83.2632 79.6508 81.0526 77.9101 80.4211C76.9079 80.0526 75.8529 80.3158 74.7979 80.579C64.8284 83.1053 53.5401 83.4737 44.9948 77.8947C37.0297 72.6842 31.7548 62.6316 22.3655 61.1579C18.4621 60.5263 14.5059 61.579 10.5498 61.6316C6.5936 61.6842 2.10995 60.3158 0.527483 56.6842C-0.421997 54.5263 -0.105504 52 0.421985 49.6842C1.42421 45.2105 3.11218 40.8421 5.38038 36.8421C5.85512 36 6.38261 35.1579 7.27934 34.7368C8.75631 34.0526 10.4443 34.9474 11.9212 35.7368C15.6137 37.7895 19.8336 39.3158 24.0535 38.9474C28.2734 38.579 32.4933 35.8421 33.5483 31.7368C35.078 25.8947 30.2251 17.7368 37.5572 14.579C44.8893 11.4211 48.107 21.5263 54.8061 19.7368C60.8722 18.0526 62.7712 8.52632 69.0483 5.94737C74.1649 3.89474 81.286 4.52632 84.1872 9.78948L84.2927 9.68422Z" fill="#4C946C"/>
</g>
<defs>
<clipPath id="clip0_31_2">
<rect width="284" height="100" fill="white"/>
</clipPath>
</defs>
</svg>
